<svg id="visual" viewBox="0 0 900 600" width="900" height="600" xmlns="http://www.w3.org/2000/svg" xmlns:xlink="http://www.w3.org/1999/xlink" version="1.1"><rect x="0" y="0" width="900" height="600" fill="#000000"></rect><path d="M0 352L21.5 362C43 372 86 392 128.8 397.2C171.7 402.3 214.3 392.7 257.2 394.7C300 396.7 343 410.3 385.8 411.5C428.7 412.7 471.3 401.3 514.2 390.2C557 379 600 368 642.8 371.8C685.7 375.7 728.3 394.3 771.2 405C814 415.7 857 418.3 878.5 419.7L900 421L900 601L878.5 601C857 601 814 601 771.2 601C728.3 601 685.7 601 642.8 601C600 601 557 601 514.2 601C471.3 601 428.7 601 385.8 601C343 601 300 601 257.2 601C214.3 601 171.7 601 128.8 601C86 601 43 601 21.5 601L0 601Z" fill="#fa7268"></path><path d="M0 432L21.5 430C43 428 86 424 128.8 426.8C171.7 429.7 214.3 439.3 257.2 435.5C300 431.7 343 414.3 385.8 414.7C428.7 415 471.3 433 514.2 436.2C557 439.3 600 427.7 642.8 421.7C685.7 415.7 728.3 415.3 771.2 412C814 408.7 857 402.3 878.5 399.2L900 396L900 601L878.5 601C857 601 814 601 771.2 601C728.3 601 685.7 601 642.8 601C600 601 557 601 514.2 601C471.3 601 428.7 601 385.8 601C343 601 300 601 257.2 601C214.3 601 171.7 601 128.8 601C86 601 43 601 21.5 601L0 601Z" fill="#ef5f67"></path><path d="M0 452L21.5 449.8C43 447.7 86 443.3 128.8 443.5C171.7 443.7 214.3 448.3 257.2 451C300 453.7 343 454.3 385.8 451.8C428.7 449.3 471.3 443.7 514.2 451.3C557 459 600 480 642.8 485.8C685.7 491.7 728.3 482.3 771.2 477.8C814 473.3 857 473.7 878.5 473.8L900 474L900 601L878.5 601C857 601 814 601 771.2 601C728.3 601 685.7 601 642.8 601C600 601 557 601 514.2 601C471.3 601 428.7 601 385.8 601C343 601 300 601 257.2 601C214.3 601 171.7 601 128.8 601C86 601 43 601 21.5 601L0 601Z" fill="#e34c67"></path><path d="M0 537L21.5 535.7C43 534.3 86 531.7 128.8 525.2C171.7 518.7 214.3 508.3 257.2 505.5C300 502.7 343 507.3 385.8 513.8C428.7 520.3 471.3 528.7 514.2 530.8C557 533 600 529 642.8 522.8C685.7 516.7 728.3 508.3 771.2 505.5C814 502.7 857 505.3 878.5 506.7L900 508L900 601L878.5 601C857 601 814 601 771.2 601C728.3 601 685.7 601 642.8 601C600 601 557 601 514.2 601C471.3 601 428.7 601 385.8 601C343 601 300 601 257.2 601C214.3 601 171.7 601 128.8 601C86 601 43 601 21.5 601L0 601Z" fill="#d53867"></path><path d="M0 538L21.5 538.7C43 539.3 86 540.7 128.8 546.3C171.7 552 214.3 562 257.2 559.2C300 556.3 343 540.7 385.8 540.5C428.7 540.3 471.3 555.7 514.2 557.8C557 560 600 549 642.8 541.3C685.7 533.7 728.3 529.3 771.2 528C814 526.7 857 528.3 878.5 529.2L900 530L900 601L878.5 601C857 601 814 601 771.2 601C728.3 601 685.7 601 642.8 601C600 601 557 601 514.2 601C471.3 601 428.7 601 385.8 601C343 601 300 601 257.2 601C214.3 601 171.7 601 128.8 601C86 601 43 601 21.5 601L0 601Z" fill="#c62368"></path></svg>